<svg width="496" height="117" viewBox="0 0 496 117" fill="none" xmlns="http://www.w3.org/2000/svg">
<mask id="mask0_20_4" style="mask-type:luminance" maskUnits="userSpaceOnUse" x="399" y="35" width="45" height="72">
<path d="M421.283 96.9265C414.647 96.585 410.855 88.6162 411.318 80.4723C412.132 66.1195 423.953 51.633 423.953 51.633C426.713 54.1884 435.013 68.0388 434.562 78.6377C434.122 88.9899 427.913 97.2665 421.283 96.9265ZM429.181 46.8647C432.034 43.4926 433.99 41.5269 433.55 39.1889C433.111 36.8509 425.307 35.2292 421.834 38.4817C411.562 30.2102 413.665 39.8996 415.151 42.0606C403.018 50.7195 394.807 73.5133 401.412 91.2992C407.87 108.685 427.347 110.83 437.559 98.6118C446.601 87.7919 444.988 67.9026 429.181 46.8647Z" fill="white"/>
</mask>
<g mask="url(#mask0_20_4)">
<mask id="mask1_20_4" style="mask-type:luminance" maskUnits="userSpaceOnUse" x="-1" y="-1" width="498" height="161">
<path d="M-0.210785 159.113H496.088V-0.284651H-0.210785V159.113Z" fill="white"/>
</mask>
<g mask="url(#mask1_20_4)">
<path d="M396.579 108.863H445.555V32.673H396.579V108.863Z" fill="white"/>
</g>
</g>
<mask id="mask2_20_4" style="mask-type:luminance" maskUnits="userSpaceOnUse" x="0" y="12" width="62" height="105">
<path d="M48.826 12.2997C25.9334 10.617 0.633468 29.8566 1.60105 54.7745C1.69391 57.167 3.68774 59.3587 6.54989 59.3587C10.0906 59.3587 20.4609 58.9602 20.4609 58.9602C20.4609 58.9602 0 75.3292 0 94.4942C0 104.607 7.47629 116.721 23.0837 116.721C44.9576 116.72 61.2622 98.5477 61.2313 83.1528C61.2298 81.9805 59.9045 80.3275 57.7672 82.9561C54.3776 87.1266 36.1977 106.073 18.2301 106.073C12.1975 106.072 6.952 102.611 6.952 95.2927C6.952 85.7097 21.904 67.0769 47.6092 59.7562C53.9052 57.8949 54.4288 48.9767 46.4287 48.5782C38.5649 48.1858 11.4105 51.2391 9.44394 51.2391C7.47629 51.2391 7.29896 50.8083 8.00079 48.9767C8.91944 46.5807 18.8863 28.8801 48.7897 25.5529C58.8891 24.7534 57.8756 12.9666 48.826 12.2997Z" fill="white"/>
</mask>
<g mask="url(#mask2_20_4)">
<mask id="mask3_20_4" style="mask-type:luminance" maskUnits="userSpaceOnUse" x="-1" y="-1" width="498" height="161">
<path d="M-0.210785 159.113H496.088V-0.284468H-0.210785V159.113Z" fill="white"/>
</mask>
<g mask="url(#mask3_20_4)">
<path d="M-0.210785 119.243H63.7178V9.67523H-0.210785V119.243Z" fill="white"/>
</g>
</g>
<mask id="mask4_20_4" style="mask-type:luminance" maskUnits="userSpaceOnUse" x="64" y="34" width="40" height="73">
<path d="M81.1917 41.4034C81.1917 35.3847 72.3841 31.6883 69.0647 40.211C62.6745 56.6208 60.7335 106.346 82.1206 106.346C91.5095 106.346 103.492 85.4682 103.492 65.0896C103.492 48.2837 96.7112 37.2995 95.2765 35.3166C93.8418 33.3307 91.8855 34.3899 92.1466 38.0964C92.4076 41.7994 93.45 76.0723 82.887 88.5124C78.7147 93.1425 75.6399 88.3192 75.1943 83.7496C73.8899 70.3829 81.1917 50.137 81.1917 41.4034Z" fill="white"/>
</mask>
<g mask="url(#mask4_20_4)">
<mask id="mask5_20_4" style="mask-type:luminance" maskUnits="userSpaceOnUse" x="-1" y="-1" width="498" height="161">
<path d="M-0.210785 159.113H496.088V-0.284529H-0.210785V159.113Z" fill="white"/>
</mask>
<g mask="url(#mask5_20_4)">
<path d="M62.2513 108.868H105.978V31.8088H62.2513V108.868Z" fill="white"/>
</g>
</g>
<mask id="mask6_20_4" style="mask-type:luminance" maskUnits="userSpaceOnUse" x="157" y="35" width="41" height="72">
<path d="M178.932 94.8141C172.926 94.8141 169.589 86.9431 169.589 78.3947C169.589 63.3296 180.265 49.624 180.265 49.624C183.2 53.4228 190.273 64.1432 190.273 74.9999C190.273 85.8581 184.934 94.8141 178.932 94.8141ZM183.735 44.8738C183.735 44.8738 187.128 40.1963 185.086 37.5567C182.791 34.5821 175.434 33.655 168.541 41.4907C159.467 51.8041 153.109 73.5689 159.982 91.8284C166.552 109.287 184.949 110.762 193.475 97.5299C201.081 85.7209 199.08 66.0434 183.735 44.8738Z" fill="white"/>
</mask>
<g mask="url(#mask6_20_4)">
<mask id="mask7_20_4" style="mask-type:luminance" maskUnits="userSpaceOnUse" x="-1" y="-1" width="498" height="161">
<path d="M-0.210754 159.113H496.088V-0.284468H-0.210754V159.113Z" fill="white"/>
</mask>
<g mask="url(#mask7_20_4)">
<path d="M154.597 108.868H200.269V32.8668H154.597V108.868Z" fill="white"/>
</g>
</g>
<mask id="mask8_20_4" style="mask-type:luminance" maskUnits="userSpaceOnUse" x="108" y="35" width="49" height="76">
<path d="M123.387 62.6854C123.912 55.8984 124.436 48.844 124.436 48.844C124.437 48.843 139.389 44.9827 144.503 45.5174C148.955 45.9799 149.88 47.9119 147.613 51.4842C142.274 59.8954 129.997 62.8069 123.387 62.6854ZM155.483 107.697C149.087 98.6895 141.053 80.6569 128.764 69.7397C141.224 68.9402 156.831 59.0929 156.831 48.5782C156.831 40.7919 148.848 35.1803 138.488 35.1803C128.127 35.1803 116.699 38.7299 112.37 41.3907C106.73 44.7179 110.927 52.5697 116.175 50.442C116.175 50.442 114.207 59.7562 113.683 64.6819C109.422 64.1472 108.566 64.9472 108.829 65.8794C109.092 66.81 110.927 67.6105 113.026 70.2734C112.37 76.1272 111.209 102.167 111.471 104.431C111.735 106.71 113.089 107.103 115.012 104.696C116.717 102.568 120.37 97.4223 122.076 77.9925C124.043 79.7202 129.42 87.0303 135.978 95.5585C145.597 108.069 148.768 108.971 152.719 110.382C154.851 111.146 157.049 109.903 155.483 107.697Z" fill="white"/>
</mask>
<g mask="url(#mask8_20_4)">
<mask id="mask9_20_4" style="mask-type:luminance" maskUnits="userSpaceOnUse" x="-1" y="-1" width="498" height="161">
<path d="M-0.210785 159.113H496.088V-0.284651H-0.210785V159.113Z" fill="white"/>
</mask>
<g mask="url(#mask9_20_4)">
<path d="M106.3 113.13H159.317V32.6583H106.3V113.13Z" fill="white"/>
</g>
</g>
<mask id="mask10_20_4" style="mask-type:luminance" maskUnits="userSpaceOnUse" x="200" y="0" width="109" height="115">
<path d="M211.153 51.106C211.427 26.2214 224.188 18.4326 231.139 18.4326C240.846 18.4326 244.853 25.9515 245.509 29.2807C246.164 32.6068 249.837 35.2676 251.018 29.8118C252.199 24.356 263.618 7.71816 277.651 7.71816C290.503 7.71715 294.955 21.1681 294.569 32.6078C293.519 63.7498 253.981 88.6047 248.778 104.3C244.144 94.7939 210.827 81.0535 211.153 51.106ZM282.242 8.32334e-06C270.7 8.32334e-06 257.05 8.65034 248.788 23.0253C246.559 17.8333 238.615 12.1768 229.174 12.1768C221.566 12.1768 200.209 21.8258 200.209 52.9698C200.209 93.1631 240.282 101.419 248.384 113.91C248.94 114.769 250.734 115.418 251.417 113.365C257.882 94.007 308.005 72.1343 308.005 32.74C308.005 10.6468 293.784 8.32334e-06 282.242 8.32334e-06Z" fill="white"/>
</mask>
<g mask="url(#mask10_20_4)">
<mask id="mask11_20_4" style="mask-type:luminance" maskUnits="userSpaceOnUse" x="-1" y="-1" width="498" height="161">
<path d="M-0.210754 159.113H496.088V-0.284468H-0.210754V159.113Z" fill="white"/>
</mask>
<g mask="url(#mask11_20_4)">
<path d="M197.723 117.252H310.492V-2.52181H197.723V117.252Z" fill="white"/>
</g>
</g>
<mask id="mask12_20_4" style="mask-type:luminance" maskUnits="userSpaceOnUse" x="302" y="35" width="23" height="72">
<path d="M314.845 36.9075C315.192 50.4341 303.472 71.9406 302.722 87.6392C302.172 99.083 304.194 103.713 305.155 105.221C306.16 106.799 308.361 106.935 308.949 104.065C310.701 95.4905 322.77 72.8854 324.316 54.708C325.265 43.5659 321.859 36.7476 317.939 35.4588C316.189 34.8843 314.796 35.1002 314.845 36.9075Z" fill="white"/>
</mask>
<g mask="url(#mask12_20_4)">
<mask id="mask13_20_4" style="mask-type:luminance" maskUnits="userSpaceOnUse" x="-1" y="-1" width="498" height="161">
<path d="M-0.210754 159.113H496.088V-0.284529H-0.210754V159.113Z" fill="white"/>
</mask>
<g mask="url(#mask13_20_4)">
<path d="M300.142 108.855H326.963V32.6542H300.142V108.855Z" fill="white"/>
</g>
</g>
<mask id="mask14_20_4" style="mask-type:luminance" maskUnits="userSpaceOnUse" x="320" y="35" width="51" height="76">
<path d="M358.556 35.1804C342.158 35.1804 330.331 41.0806 330.331 54.4775C330.331 62.7304 336.363 68.4076 345.981 70.0057C351.578 71.07 357.025 71.4871 359.009 72.2236C362.598 73.5527 354.009 77.747 340.642 86.9461C331.51 93.2312 324.84 99.8714 321.276 106.922C320.042 109.363 321.712 111.694 324.294 109.89C329.306 106.388 340.289 100.551 350.946 94.6013C361.088 88.9386 370.641 82.7166 370.641 74.9747C370.641 67.9638 365.456 65.3211 361.459 64.8585C354.551 64.0626 339.599 64.682 339.599 55.8985C339.6 52.6152 343.883 48.311 357.654 48.311C368.279 48.311 367.207 35.1804 358.556 35.1804Z" fill="white"/>
</mask>
<g mask="url(#mask14_20_4)">
<mask id="mask15_20_4" style="mask-type:luminance" maskUnits="userSpaceOnUse" x="-1" y="-1" width="498" height="161">
<path d="M-0.210785 159.113H496.088V-0.284529H-0.210785V159.113Z" fill="white"/>
</mask>
<g mask="url(#mask15_20_4)">
<path d="M318.375 113.053H373.128V32.6585H318.375V113.053Z" fill="white"/>
</g>
</g>
<mask id="mask16_20_4" style="mask-type:luminance" maskUnits="userSpaceOnUse" x="375" y="35" width="20" height="72">
<path d="M379.206 37.6227C384.571 48.0743 375.44 76.506 375.44 87.3077C375.441 98.1094 376.639 101.917 379.456 105.418C380.897 107.212 382.789 106.136 382.963 104.199C383.837 94.6783 393.916 68.8373 394.567 56.8301C395.398 41.5355 387.955 35.6095 383.594 35.2353C381.178 35.0285 377.983 35.4718 379.206 37.6227Z" fill="white"/>
</mask>
<g mask="url(#mask16_20_4)">
<mask id="mask17_20_4" style="mask-type:luminance" maskUnits="userSpaceOnUse" x="-1" y="-1" width="498" height="161">
<path d="M-0.210785 159.113H496.088V-0.284651H-0.210785V159.113Z" fill="white"/>
</mask>
<g mask="url(#mask17_20_4)">
<path d="M372.954 108.855H397.117V32.6674H372.954V108.855Z" fill="white"/>
</g>
</g>
<mask id="mask18_20_4" style="mask-type:luminance" maskUnits="userSpaceOnUse" x="382" y="0" width="17" height="31">
<path d="M382.897 22.8749C382.623 32.8347 398.993 34.4423 398.993 22.2656C398.993 11.6546 390.245 2.87714 388.488 1.41633C385.757 -0.843477 381.894 -0.435403 382.804 3.21711C384.898 10.8722 382.991 19.3954 382.897 22.8749Z" fill="white"/>
</mask>
<g mask="url(#mask18_20_4)">
<mask id="mask19_20_4" style="mask-type:luminance" maskUnits="userSpaceOnUse" x="-1" y="-1" width="498" height="161">
<path d="M-0.210785 159.113H496.088V-0.284651H-0.210785V159.113Z" fill="white"/>
</mask>
<g mask="url(#mask19_20_4)">
<path d="M380.181 33.3976H401.48V-2.50048H380.181V33.3976Z" fill="white"/>
</g>
</g>
<mask id="mask20_20_4" style="mask-type:luminance" maskUnits="userSpaceOnUse" x="449" y="35" width="47" height="73">
<path d="M495.196 105.311C493.057 91.9333 496 74.7204 496 58.5002C496 46.1172 485.859 39.7514 479.841 39.7514C472.023 39.7514 467.38 43.3282 467.38 43.3282C467.467 40.9716 467.869 37.3458 467.795 36.2023C467.709 34.8943 466.164 34.8928 463.93 36.115C451.638 43.8755 449.864 66.1432 449.864 81.5775C449.865 97.0128 452.285 102.484 452.54 104.575C452.786 106.561 455.191 106.859 456.136 105.114C462.668 92.2072 463.431 68.7031 465.663 55.621C468.759 51.3485 481.388 50.5636 481.905 60.7671C482.43 71.1501 481.444 97.3992 491.909 106.563C493.321 107.798 495.506 107.233 495.196 105.311Z" fill="white"/>
</mask>
<g mask="url(#mask20_20_4)">
<mask id="mask21_20_4" style="mask-type:luminance" maskUnits="userSpaceOnUse" x="-1" y="-1" width="498" height="161">
<path d="M-0.210785 159.113H496.088V-0.284651H-0.210785V159.113Z" fill="white"/>
</mask>
<g mask="url(#mask21_20_4)">
<path d="M447.377 109.74H498.486V32.6873H447.377V109.74Z" fill="white"/>
</g>
</g>
</svg>
